<svg width="416" height="175" viewBox="0 0 416 175" fill="none" xmlns="http://www.w3.org/2000/svg">
<rect width="416" height="175" rx="50" fill="white"/>
<path fill-rule="evenodd" clip-rule="evenodd" d="M87.5 50C79.8477 50 74.9871 59.5434 65.2659 78.6301L65.2659 78.6302L60.0449 88.8812C51.807 105.056 47.6881 113.143 51.3376 119.071C54.9871 125 64.0844 125 82.279 125H92.721C110.916 125 120.013 125 123.662 119.071C127.312 113.143 123.193 105.056 114.955 88.8812L109.734 78.6302C100.013 59.5434 95.1523 50 87.5 50ZM75.5202 80.3305L75.5202 80.3305L75.5202 80.3305L69.8632 86.3807C60.9375 95.927 56.4747 100.7 57.8261 105.521C59.1776 110.342 65.4839 112.145 78.0967 115.75L85.3352 117.82C97.948 121.426 104.254 123.229 107.963 119.854C111.671 116.48 110.423 110.074 107.928 97.263L106.346 89.1433C103.401 74.025 101.929 66.4659 96.6241 64.9493C91.3194 63.4327 86.053 69.0653 75.5202 80.3305ZM96.947 81.199C94.3346 79.5715 90.6394 81.786 83.2491 86.215L79.2799 88.5937C73.0172 92.3469 69.8858 94.2235 69.867 97.0176C69.8482 99.8117 72.9539 101.747 79.1654 105.616L82.7302 107.837C88.9416 111.707 92.0473 113.642 94.5579 112.4C97.0685 111.158 97.3875 107.53 98.0256 100.272L98.43 95.6728C99.183 87.1087 99.5594 82.8266 96.947 81.199ZM95.9621 89.2918C94.6589 87.8488 92.0261 88.5526 86.7605 89.9602L83.9325 90.7162C79.4704 91.9091 77.2393 92.5055 76.7395 94.2004C76.2397 95.8952 77.789 97.6107 80.8876 101.042L82.6658 103.011L82.6659 103.011C85.7644 106.442 87.3137 108.157 89.0565 107.839C90.7994 107.521 91.6275 105.371 93.2838 101.071L94.3335 98.3458C96.288 93.2718 97.2653 90.7348 95.9621 89.2918Z" fill="black"/>
<path fill-rule="evenodd" clip-rule="evenodd" d="M87.5 50C79.8477 50 74.9871 59.5434 65.2659 78.6301L65.2659 78.6302L60.0449 88.8812C51.807 105.056 47.6881 113.143 51.3376 119.071C54.9871 125 64.0844 125 82.279 125H92.721C110.916 125 120.013 125 123.662 119.071C127.312 113.143 123.193 105.056 114.955 88.8812L109.734 78.6302C100.013 59.5434 95.1523 50 87.5 50ZM75.5202 80.3305L75.5202 80.3305L75.5202 80.3305L69.8632 86.3807C60.9375 95.927 56.4747 100.7 57.8261 105.521C59.1776 110.342 65.4839 112.145 78.0967 115.75L85.3352 117.82C97.948 121.426 104.254 123.229 107.963 119.854C111.671 116.48 110.423 110.074 107.928 97.263L106.346 89.1433C103.401 74.025 101.929 66.4659 96.6241 64.9493C91.3194 63.4327 86.053 69.0653 75.5202 80.3305ZM96.947 81.199C94.3346 79.5715 90.6394 81.786 83.2491 86.215L79.2799 88.5937C73.0172 92.3469 69.8858 94.2235 69.867 97.0176C69.8482 99.8117 72.9539 101.747 79.1654 105.616L82.7302 107.837C88.9416 111.707 92.0473 113.642 94.5579 112.4C97.0685 111.158 97.3875 107.53 98.0256 100.272L98.43 95.6728C99.183 87.1087 99.5594 82.8266 96.947 81.199ZM95.9621 89.2918C94.6589 87.8488 92.0261 88.5526 86.7605 89.9602L83.9325 90.7162C79.4704 91.9091 77.2393 92.5055 76.7395 94.2004C76.2397 95.8952 77.789 97.6107 80.8876 101.042L82.6658 103.011L82.6659 103.011C85.7644 106.442 87.3137 108.157 89.0565 107.839C90.7994 107.521 91.6275 105.371 93.2838 101.071L94.3335 98.3458C96.288 93.2718 97.2653 90.7348 95.9621 89.2918Z" fill="url(#paint0_radial_402_1059)"/>
<path d="M158.608 72.1699C163.028 72.1699 166.574 73.3545 169.245 75.7237C171.962 78.0929 173.32 81.4377 173.32 85.7579V100.531H165.1V97.0465H165.031C162.222 100.02 158.331 101.506 153.358 101.506C150.503 101.413 148.408 100.531 147.072 98.8582C145.691 97.0929 145 95.1418 145 93.0049C145 90.3105 145.967 88.1968 147.901 86.6638C149.835 85.1308 152.138 84.3643 154.808 84.3643H165.1C165.008 82.8313 164.456 81.577 163.443 80.6015C162.43 79.5795 161.002 79.0685 159.16 79.0685C157.917 79.0685 156.789 79.3007 155.775 79.7653C154.808 80.2298 154.164 80.7408 153.841 81.2983L153.427 82.0648L145.967 80.1137C147.947 74.8178 152.161 72.1699 158.608 72.1699ZM156.673 95.4438C158.838 95.3509 160.772 94.7702 162.476 93.7017C164.225 92.4939 165.1 91.0073 165.1 89.2421H160.542C158.147 89.2421 156.397 89.4743 155.292 89.9389C154.233 90.357 153.611 91.1699 153.427 92.3778C153.289 93.3068 153.473 94.0501 153.98 94.6076C154.486 95.1186 155.384 95.3973 156.673 95.4438Z" fill="black"/>
<path d="M197.241 100.461C193.926 101.529 190.84 101.971 187.985 101.785C184.992 101.599 182.344 100.763 180.042 99.2763C177.786 97.7897 176.358 95.9315 175.759 93.7017L182.736 91.8203C183.104 92.9817 184.071 93.7946 185.637 94.2592C186.926 94.8631 188.814 95.0721 191.301 94.8863C193.742 94.7005 195.284 94.0733 195.929 93.0049C196.205 92.5403 196.228 92.0526 195.998 91.5416C195.768 90.9841 195.33 90.6125 194.686 90.4266C194.225 90.3337 192.084 90.1015 188.262 89.7298C184.716 89.4046 182.344 89.0562 181.147 88.6846C179.075 87.9413 177.624 86.7103 176.795 84.9914C176.013 83.2262 175.967 81.2054 176.657 78.9291C177.394 76.5599 179.144 74.7714 181.907 73.5636C184.716 72.3557 188.077 71.9377 191.992 72.3093C194.801 72.5416 197.126 73.3313 198.968 74.6785C200.856 75.9792 202.03 77.6748 202.491 79.7653L195.86 81.577C195.307 79.9976 193.58 79.022 190.679 78.6504C187.916 78.3252 185.844 78.6968 184.463 79.7653C183.818 80.3692 183.542 80.9499 183.634 81.5073C183.726 82.0648 184.14 82.5061 184.877 82.8313C185.199 83.0636 186.972 83.2958 190.196 83.5281L195.1 83.8068C197.356 84.0856 199.083 84.6663 200.28 85.5489C201.524 86.4315 202.399 87.8484 202.905 89.7995C203.412 92.0293 203.136 94.143 202.076 96.1406C201.017 98.1381 199.406 99.5782 197.241 100.461Z" fill="black"/>
<path d="M218.706 73.4242H225.476V81.0196H218.776V86.176C218.776 92.1222 220.64 94.4914 224.37 93.2836V101.227C223.219 101.46 222.275 101.576 221.538 101.576C217.901 101.576 215.046 100.531 212.973 98.4401C210.901 96.3032 209.865 93.1675 209.865 89.033V81.0196H205.237V73.4242C207.862 73.4242 209.612 72.9829 210.487 72.1002C211.362 71.1711 212.052 69.22 212.559 66.2469H218.706V73.4242Z" fill="black"/>
<path d="M240.561 73.4242V77.3961C241.989 75.1198 243.992 73.5636 246.571 72.7274C249.149 71.8912 251.613 71.9841 253.962 73.0061L251.406 81.2983C251.36 81.2518 251.153 81.1589 250.784 81.0196C250.462 80.8802 249.909 80.7641 249.126 80.6711C248.39 80.5782 247.607 80.555 246.778 80.6015C242.633 80.9731 240.561 83.5746 240.561 88.4059V100.531H231.72V73.4242H240.561Z" fill="black"/>
<path d="M267.749 72.1699C272.17 72.1699 275.716 73.3545 278.387 75.7237C281.103 78.0929 282.462 81.4377 282.462 85.7579V100.531H274.242V97.0465H274.173C271.364 100.02 267.473 101.506 262.5 101.506C259.645 101.413 257.549 100.531 256.214 98.8582C254.832 97.0929 254.142 95.1418 254.142 93.0049C254.142 90.3105 255.109 88.1968 257.043 86.6638C258.977 85.1308 261.279 84.3643 263.95 84.3643H274.242C274.15 82.8313 273.597 81.577 272.584 80.6015C271.571 79.5795 270.144 79.0685 268.302 79.0685C267.059 79.0685 265.93 79.3007 264.917 79.7653C263.95 80.2298 263.306 80.7408 262.983 81.2983L262.569 82.0648L255.109 80.1137C257.089 74.8178 261.302 72.1699 267.749 72.1699ZM265.815 95.4438C267.979 95.3509 269.914 94.7702 271.617 93.7017C273.367 92.4939 274.242 91.0073 274.242 89.2421H269.683C267.289 89.2421 265.539 89.4743 264.434 89.9389C263.375 90.357 262.753 91.1699 262.569 92.3778C262.431 93.3068 262.615 94.0501 263.121 94.6076C263.628 95.1186 264.526 95.3973 265.815 95.4438Z" fill="black"/>
<path d="M297.56 100.461H288.719V59H297.56V100.461Z" fill="black"/>
<path d="M325.174 85.5489V73.4242H334.016V97.813C334.016 102.877 332.634 107.174 329.871 110.704C327.108 114.235 323.424 116 318.819 116C314.169 115.907 309.863 113.561 305.903 108.962L310.323 103.597C312.994 106.43 315.849 107.731 318.889 107.499C323.355 107.22 325.451 103.341 325.174 95.8619C322.826 99.2995 319.579 101.018 315.435 101.018C312.211 101.018 309.449 99.857 307.146 97.5342C304.89 95.2579 303.761 92.3081 303.761 88.6846V73.4242H312.534V85.5489C312.534 87.4535 313.132 89.0795 314.33 90.4266C315.573 91.7738 317.07 92.4474 318.819 92.4474C320.569 92.4474 322.066 91.7738 323.309 90.4266C324.553 89.0795 325.174 87.4535 325.174 85.5489Z" fill="black"/>
<path d="M356.468 73.4242H366L355.777 87.291L364.964 100.531H355.432L350.458 93.3533L345.14 100.531H335.539L345.761 86.6638L336.575 73.4242H346.107L351.149 80.6711L356.468 73.4242Z" fill="black"/>
<defs>
<radialGradient id="paint0_radial_402_1059" cx="0" cy="0" r="1" gradientUnits="userSpaceOnUse" gradientTransform="translate(123.828 50) rotate(135) scale(106.066 106.066)">
<stop stop-color="#1B31F8"/>
<stop offset="0.559722" stop-color="#348EF8"/>
<stop offset="1" stop-color="#621BF8"/>
</radialGradient>
</defs>
</svg>
