<svg width="161" height="26" viewBox="0 0 161 26" fill="none" xmlns="http://www.w3.org/2000/svg">
<path fill-rule="evenodd" clip-rule="evenodd" d="M13 26C20.1797 26 26 20.1797 26 13C26 5.82031 20.1797 9.53674e-06 13 9.53674e-06C5.82028 9.53674e-06 -2.28882e-05 5.82031 -2.28882e-05 13C-2.28882e-05 20.1797 5.82028 26 13 26ZM8.72872 8.62882L9.99933 8.47075L12.6687 8.4286L15.1779 8.48129L16.4485 8.61828L19.8653 11.3582V11.6216L15.4235 16.2162L12.6966 18.8086L9.82712 16.2373L5.33329 11.5795V11.4003L8.72872 8.62882Z" fill="#0D0C21"/>
<path d="M41.706 18.662C41.25 18.662 40.902 18.536 40.662 18.284C40.422 18.032 40.302 17.678 40.302 17.222V8.114H37.116C36.744 8.114 36.456 8.012 36.252 7.808C36.048 7.604 35.946 7.322 35.946 6.962C35.946 6.59 36.048 6.308 36.252 6.116C36.456 5.912 36.744 5.81 37.116 5.81H46.278C46.65 5.81 46.938 5.912 47.142 6.116C47.346 6.308 47.448 6.59 47.448 6.962C47.448 7.322 47.346 7.604 47.142 7.808C46.938 8.012 46.65 8.114 46.278 8.114H43.092V17.222C43.092 17.678 42.972 18.032 42.732 18.284C42.504 18.536 42.162 18.662 41.706 18.662ZM51.2412 18.698C50.2932 18.698 49.4652 18.512 48.7572 18.14C48.0612 17.768 47.5212 17.234 47.1372 16.538C46.7532 15.842 46.5612 15.02 46.5612 14.072C46.5612 13.364 46.6692 12.728 46.8852 12.164C47.1012 11.6 47.4132 11.12 47.8212 10.724C48.2412 10.316 48.7392 10.01 49.3152 9.806C49.8912 9.59 50.5332 9.482 51.2412 9.482C52.1892 9.482 53.0112 9.668 53.7072 10.04C54.4152 10.412 54.9612 10.94 55.3452 11.624C55.7412 12.308 55.9392 13.124 55.9392 14.072C55.9392 14.792 55.8252 15.434 55.5972 15.998C55.3812 16.562 55.0692 17.048 54.6612 17.456C54.2532 17.864 53.7552 18.176 53.1672 18.392C52.5912 18.596 51.9492 18.698 51.2412 18.698ZM51.2412 16.664C51.6372 16.664 51.9792 16.568 52.2672 16.376C52.5552 16.184 52.7832 15.902 52.9512 15.53C53.1192 15.146 53.2032 14.66 53.2032 14.072C53.2032 13.196 53.0232 12.554 52.6632 12.146C52.3032 11.726 51.8292 11.516 51.2412 11.516C50.8572 11.516 50.5152 11.606 50.2152 11.786C49.9272 11.966 49.6992 12.248 49.5312 12.632C49.3752 13.004 49.2972 13.484 49.2972 14.072C49.2972 14.948 49.4772 15.602 49.8372 16.034C50.1972 16.454 50.6652 16.664 51.2412 16.664ZM58.9608 18.662C58.5168 18.662 58.1748 18.542 57.9348 18.302C57.7068 18.062 57.5928 17.72 57.5928 17.276V10.886C57.5928 10.442 57.7068 10.106 57.9348 9.878C58.1748 9.638 58.5048 9.518 58.9248 9.518C59.3568 9.518 59.6868 9.638 59.9148 9.878C60.1428 10.106 60.2568 10.442 60.2568 10.886V11.912L60.0588 11.318C60.3348 10.73 60.7428 10.28 61.2828 9.968C61.8348 9.644 62.4588 9.482 63.1548 9.482C63.8628 9.482 64.4448 9.62 64.9008 9.896C65.3568 10.16 65.6988 10.568 65.9268 11.12C66.1548 11.66 66.2688 12.35 66.2688 13.19V17.276C66.2688 17.72 66.1488 18.062 65.9088 18.302C65.6808 18.542 65.3448 18.662 64.9008 18.662C64.4688 18.662 64.1328 18.542 63.8928 18.302C63.6648 18.062 63.5508 17.72 63.5508 17.276V13.316C63.5508 12.704 63.4368 12.266 63.2088 12.002C62.9928 11.726 62.6568 11.588 62.2008 11.588C61.6248 11.588 61.1628 11.768 60.8148 12.128C60.4788 12.488 60.3108 12.968 60.3108 13.568V17.276C60.3108 18.2 59.8608 18.662 58.9608 18.662ZM69.8279 18.662C69.4199 18.662 69.1079 18.548 68.8919 18.32C68.6759 18.092 68.5679 17.774 68.5679 17.366V6.944C68.5679 6.536 68.6819 6.218 68.9099 5.99C69.1499 5.762 69.4739 5.648 69.8819 5.648C70.2419 5.648 70.5239 5.72 70.7279 5.864C70.9439 5.996 71.1419 6.23 71.3219 6.566L75.4799 14.162H74.8679L79.0259 6.566C79.2059 6.23 79.3979 5.996 79.6019 5.864C79.8179 5.72 80.0999 5.648 80.4479 5.648C80.8559 5.648 81.1679 5.762 81.3839 5.99C81.6119 6.218 81.7259 6.536 81.7259 6.944V17.366C81.7259 17.774 81.6179 18.092 81.4019 18.32C81.1859 18.548 80.8739 18.662 80.4659 18.662C80.0579 18.662 79.7399 18.548 79.5119 18.32C79.2959 18.092 79.1879 17.774 79.1879 17.366V10.076H79.5839L76.2359 16.07C76.0919 16.298 75.9359 16.472 75.7679 16.592C75.6119 16.7 75.4019 16.754 75.1379 16.754C74.8739 16.754 74.6579 16.694 74.4899 16.574C74.3219 16.454 74.1719 16.286 74.0399 16.07L70.6559 10.058H71.0879V17.366C71.0879 17.774 70.9799 18.092 70.7639 18.32C70.5599 18.548 70.2479 18.662 69.8279 18.662ZM87.0535 18.698C86.4055 18.698 85.8235 18.572 85.3075 18.32C84.7915 18.068 84.3895 17.726 84.1015 17.294C83.8135 16.862 83.6695 16.376 83.6695 15.836C83.6695 15.188 83.8375 14.678 84.1735 14.306C84.5095 13.922 85.0555 13.652 85.8115 13.496C86.5675 13.328 87.5695 13.244 88.8175 13.244H89.7715V14.648H88.8355C88.2235 14.648 87.7255 14.684 87.3415 14.756C86.9695 14.816 86.6995 14.924 86.5315 15.08C86.3755 15.236 86.2975 15.452 86.2975 15.728C86.2975 16.064 86.4115 16.34 86.6395 16.556C86.8795 16.772 87.2215 16.88 87.6655 16.88C88.0135 16.88 88.3195 16.802 88.5835 16.646C88.8595 16.478 89.0755 16.256 89.2315 15.98C89.3875 15.692 89.4655 15.368 89.4655 15.008V12.938C89.4655 12.41 89.3455 12.038 89.1055 11.822C88.8655 11.594 88.4575 11.48 87.8815 11.48C87.5575 11.48 87.2035 11.522 86.8195 11.606C86.4475 11.678 86.0335 11.804 85.5775 11.984C85.3135 12.104 85.0795 12.134 84.8755 12.074C84.6715 12.002 84.5155 11.882 84.4075 11.714C84.2995 11.534 84.2455 11.342 84.2455 11.138C84.2455 10.922 84.3055 10.718 84.4255 10.526C84.5455 10.322 84.7435 10.172 85.0195 10.076C85.5835 9.848 86.1115 9.692 86.6035 9.608C87.1075 9.524 87.5695 9.482 87.9895 9.482C88.9135 9.482 89.6695 9.62 90.2575 9.896C90.8575 10.16 91.3075 10.574 91.6075 11.138C91.9075 11.69 92.0575 12.404 92.0575 13.28V17.276C92.0575 17.72 91.9495 18.062 91.7335 18.302C91.5175 18.542 91.2055 18.662 90.7975 18.662C90.3895 18.662 90.0715 18.542 89.8435 18.302C89.6275 18.062 89.5195 17.72 89.5195 17.276V16.61L89.6455 16.718C89.5735 17.126 89.4175 17.48 89.1775 17.78C88.9495 18.068 88.6555 18.296 88.2955 18.464C87.9355 18.62 87.5215 18.698 87.0535 18.698ZM95.489 18.662C95.033 18.662 94.685 18.542 94.445 18.302C94.205 18.062 94.085 17.72 94.085 17.276V10.886C94.085 10.442 94.199 10.106 94.427 9.878C94.667 9.638 94.997 9.518 95.417 9.518C95.849 9.518 96.179 9.638 96.407 9.878C96.635 10.106 96.749 10.442 96.749 10.886V11.822H96.569C96.713 11.102 97.031 10.544 97.523 10.148C98.015 9.752 98.651 9.53 99.431 9.482C99.731 9.458 99.959 9.536 100.115 9.716C100.283 9.884 100.373 10.166 100.385 10.562C100.409 10.934 100.331 11.228 100.151 11.444C99.983 11.66 99.695 11.792 99.287 11.84L98.873 11.876C98.189 11.936 97.679 12.134 97.343 12.47C97.019 12.806 96.857 13.292 96.857 13.928V17.276C96.857 17.72 96.737 18.062 96.497 18.302C96.269 18.542 95.933 18.662 95.489 18.662ZM102.871 18.662C102.427 18.662 102.085 18.542 101.845 18.302C101.617 18.062 101.503 17.72 101.503 17.276V7.034C101.503 6.578 101.617 6.236 101.845 6.008C102.085 5.768 102.427 5.648 102.871 5.648C103.303 5.648 103.633 5.768 103.861 6.008C104.101 6.236 104.221 6.578 104.221 7.034V13.316H104.257L106.867 10.418C107.131 10.118 107.371 9.896 107.587 9.752C107.815 9.596 108.115 9.518 108.487 9.518C108.859 9.518 109.141 9.614 109.333 9.806C109.537 9.998 109.639 10.232 109.639 10.508C109.651 10.772 109.537 11.042 109.297 11.318L106.543 14.396V13.37L109.603 16.898C109.831 17.174 109.927 17.45 109.891 17.726C109.867 18.002 109.747 18.23 109.531 18.41C109.315 18.578 109.039 18.662 108.703 18.662C108.295 18.662 107.965 18.584 107.713 18.428C107.473 18.272 107.227 18.032 106.975 17.708L104.257 14.684H104.221V17.276C104.221 18.2 103.771 18.662 102.871 18.662ZM115.989 18.698C114.945 18.698 114.045 18.512 113.289 18.14C112.545 17.756 111.969 17.222 111.561 16.538C111.165 15.842 110.967 15.026 110.967 14.09C110.967 13.178 111.159 12.38 111.543 11.696C111.927 11 112.461 10.46 113.145 10.076C113.841 9.68 114.627 9.482 115.503 9.482C116.139 9.482 116.715 9.59 117.231 9.806C117.747 10.01 118.191 10.31 118.563 10.706C118.935 11.09 119.217 11.564 119.409 12.128C119.601 12.68 119.697 13.298 119.697 13.982C119.697 14.21 119.625 14.384 119.481 14.504C119.337 14.612 119.127 14.666 118.851 14.666H113.199V13.262H117.735L117.447 13.514C117.447 13.022 117.375 12.614 117.231 12.29C117.087 11.954 116.877 11.702 116.601 11.534C116.337 11.366 116.007 11.282 115.611 11.282C115.167 11.282 114.789 11.384 114.477 11.588C114.165 11.792 113.925 12.086 113.757 12.47C113.589 12.854 113.505 13.316 113.505 13.856V14C113.505 14.912 113.715 15.584 114.135 16.016C114.567 16.448 115.203 16.664 116.043 16.664C116.331 16.664 116.661 16.628 117.033 16.556C117.405 16.484 117.753 16.37 118.077 16.214C118.353 16.082 118.599 16.04 118.815 16.088C119.031 16.124 119.199 16.22 119.319 16.376C119.439 16.532 119.505 16.712 119.517 16.916C119.541 17.12 119.499 17.324 119.391 17.528C119.283 17.72 119.103 17.882 118.851 18.014C118.443 18.242 117.981 18.41 117.465 18.518C116.961 18.638 116.469 18.698 115.989 18.698ZM125.564 18.698C124.736 18.698 124.04 18.56 123.476 18.284C122.924 18.008 122.51 17.606 122.234 17.078C121.97 16.55 121.838 15.884 121.838 15.08V11.696H121.082C120.746 11.696 120.482 11.606 120.29 11.426C120.11 11.246 120.02 11 120.02 10.688C120.02 10.352 120.11 10.1 120.29 9.932C120.482 9.752 120.746 9.662 121.082 9.662H121.838V8.294C121.838 7.838 121.958 7.496 122.198 7.268C122.438 7.028 122.774 6.908 123.206 6.908C123.65 6.908 123.986 7.028 124.214 7.268C124.442 7.496 124.556 7.838 124.556 8.294V9.662H126.266C126.602 9.662 126.86 9.752 127.04 9.932C127.22 10.1 127.31 10.352 127.31 10.688C127.31 11 127.22 11.246 127.04 11.426C126.86 11.606 126.602 11.696 126.266 11.696H124.556V14.972C124.556 15.476 124.67 15.854 124.898 16.106C125.138 16.358 125.516 16.484 126.032 16.484C126.212 16.484 126.38 16.466 126.536 16.43C126.692 16.394 126.836 16.37 126.968 16.358C127.136 16.346 127.274 16.4 127.382 16.52C127.49 16.628 127.544 16.874 127.544 17.258C127.544 17.546 127.496 17.798 127.4 18.014C127.304 18.23 127.136 18.386 126.896 18.482C126.74 18.542 126.524 18.59 126.248 18.626C125.984 18.674 125.756 18.698 125.564 18.698ZM134.893 18.698C133.525 18.698 132.355 18.428 131.383 17.888C130.411 17.348 129.661 16.592 129.133 15.62C128.617 14.636 128.359 13.478 128.359 12.146C128.359 11.15 128.503 10.256 128.791 9.464C129.091 8.66 129.523 7.976 130.087 7.412C130.651 6.836 131.335 6.392 132.139 6.08C132.955 5.768 133.873 5.612 134.893 5.612C135.493 5.612 136.099 5.69 136.711 5.846C137.335 5.99 137.875 6.2 138.331 6.476C138.631 6.644 138.835 6.854 138.943 7.106C139.051 7.358 139.081 7.61 139.033 7.862C138.997 8.114 138.895 8.33 138.727 8.51C138.571 8.69 138.373 8.804 138.133 8.852C137.893 8.9 137.623 8.846 137.323 8.69C136.963 8.474 136.585 8.318 136.189 8.222C135.793 8.126 135.391 8.078 134.983 8.078C134.179 8.078 133.501 8.24 132.949 8.564C132.409 8.876 132.001 9.332 131.725 9.932C131.449 10.532 131.311 11.27 131.311 12.146C131.311 13.01 131.449 13.748 131.725 14.36C132.001 14.972 132.409 15.44 132.949 15.764C133.501 16.076 134.179 16.232 134.983 16.232C135.367 16.232 135.757 16.184 136.153 16.088C136.561 15.992 136.951 15.842 137.323 15.638C137.635 15.482 137.911 15.428 138.151 15.476C138.403 15.512 138.607 15.62 138.763 15.8C138.931 15.968 139.033 16.172 139.069 16.412C139.117 16.652 139.093 16.892 138.997 17.132C138.901 17.372 138.721 17.576 138.457 17.744C138.013 18.044 137.467 18.278 136.819 18.446C136.171 18.614 135.529 18.698 134.893 18.698ZM143.462 18.698C142.814 18.698 142.232 18.572 141.716 18.32C141.2 18.068 140.798 17.726 140.51 17.294C140.222 16.862 140.078 16.376 140.078 15.836C140.078 15.188 140.246 14.678 140.582 14.306C140.918 13.922 141.464 13.652 142.22 13.496C142.976 13.328 143.978 13.244 145.226 13.244H146.18V14.648H145.244C144.632 14.648 144.134 14.684 143.75 14.756C143.378 14.816 143.108 14.924 142.94 15.08C142.784 15.236 142.706 15.452 142.706 15.728C142.706 16.064 142.82 16.34 143.048 16.556C143.288 16.772 143.63 16.88 144.074 16.88C144.422 16.88 144.728 16.802 144.992 16.646C145.268 16.478 145.484 16.256 145.64 15.98C145.796 15.692 145.874 15.368 145.874 15.008V12.938C145.874 12.41 145.754 12.038 145.514 11.822C145.274 11.594 144.866 11.48 144.29 11.48C143.966 11.48 143.612 11.522 143.228 11.606C142.856 11.678 142.442 11.804 141.986 11.984C141.722 12.104 141.488 12.134 141.284 12.074C141.08 12.002 140.924 11.882 140.816 11.714C140.708 11.534 140.654 11.342 140.654 11.138C140.654 10.922 140.714 10.718 140.834 10.526C140.954 10.322 141.152 10.172 141.428 10.076C141.992 9.848 142.52 9.692 143.012 9.608C143.516 9.524 143.978 9.482 144.398 9.482C145.322 9.482 146.078 9.62 146.666 9.896C147.266 10.16 147.716 10.574 148.016 11.138C148.316 11.69 148.466 12.404 148.466 13.28V17.276C148.466 17.72 148.358 18.062 148.142 18.302C147.926 18.542 147.614 18.662 147.206 18.662C146.798 18.662 146.48 18.542 146.252 18.302C146.036 18.062 145.928 17.72 145.928 17.276V16.61L146.054 16.718C145.982 17.126 145.826 17.48 145.586 17.78C145.358 18.068 145.064 18.296 144.704 18.464C144.344 18.62 143.93 18.698 143.462 18.698ZM151.861 21.902C151.417 21.902 151.075 21.782 150.835 21.542C150.607 21.314 150.493 20.972 150.493 20.516V10.886C150.493 10.442 150.607 10.106 150.835 9.878C151.075 9.638 151.405 9.518 151.825 9.518C152.269 9.518 152.605 9.638 152.833 9.878C153.061 10.106 153.175 10.442 153.175 10.886V12.11L152.977 11.408C153.157 10.832 153.517 10.37 154.057 10.022C154.609 9.662 155.239 9.482 155.947 9.482C156.715 9.482 157.387 9.668 157.963 10.04C158.551 10.412 159.007 10.94 159.331 11.624C159.655 12.308 159.817 13.124 159.817 14.072C159.817 15.02 159.655 15.842 159.331 16.538C159.007 17.234 158.557 17.768 157.981 18.14C157.405 18.512 156.727 18.698 155.947 18.698C155.251 18.698 154.633 18.53 154.093 18.194C153.553 17.846 153.187 17.396 152.995 16.844H153.211V20.516C153.211 20.972 153.091 21.314 152.851 21.542C152.623 21.782 152.293 21.902 151.861 21.902ZM155.137 16.664C155.521 16.664 155.857 16.568 156.145 16.376C156.445 16.184 156.673 15.902 156.829 15.53C156.997 15.146 157.081 14.66 157.081 14.072C157.081 13.196 156.901 12.554 156.541 12.146C156.181 11.726 155.713 11.516 155.137 11.516C154.753 11.516 154.411 11.606 154.111 11.786C153.823 11.966 153.595 12.248 153.427 12.632C153.259 13.004 153.175 13.484 153.175 14.072C153.175 14.948 153.355 15.602 153.715 16.034C154.075 16.454 154.549 16.664 155.137 16.664Z" fill="#0D0C21"/>
</svg>
